HIERARCHY
ROOT hip
{
	OFFSET 0.000000 0.000000 0.000000
	CHANNELS 6 Xposition Yposition Zposition Xrotation Zrotation Yrotation 
	JOINT abdomen
	{
		OFFSET 0.000000 3.422050 0.000000
		CHANNELS 3 Xrotation Zrotation Yrotation 
		JOINT chest
		{
			OFFSET 0.000000 8.486693 -0.684411
			CHANNELS 3 Xrotation Zrotation Yrotation 
			JOINT neck
			{
				OFFSET 0.000000 10.266162 -0.273764
				CHANNELS 3 Xrotation Zrotation Yrotation 
				JOINT head
				{
					OFFSET 0.000000 3.148285 0.000000
					CHANNELS 3 Xrotation Zrotation Yrotation 
					End Site
					{
						OFFSET 0.000000 3.148289 0.000000
					}
				}
			}
			JOINT lCollar
			{
				OFFSET 3.422053 6.707223 -0.821293
				CHANNELS 3 Yrotation Zrotation Xrotation 
				JOINT lShldr
				{
					OFFSET 3.285171 0.000000 0.000000
					CHANNELS 3 Zrotation Yrotation Xrotation 
					JOINT lForeArm
					{
						OFFSET 10.129278 0.000000 0.000000
						CHANNELS 3 Yrotation Zrotation Xrotation 
						JOINT lHand
						{
							OFFSET 8.486692 0.000000 0.000000
							CHANNELS 3 Zrotation Yrotation Xrotation 
							End Site
							{
								OFFSET 4.106464 0.000000 0.000000
							}
						}
					}
				}
			}
			JOINT rCollar
			{
				OFFSET -3.558935 6.707223 -0.821293
				CHANNELS 3 Yrotation Zrotation Xrotation 
				JOINT rShldr
				{
					OFFSET -3.148289 0.000000 0.000000
					CHANNELS 3 Zrotation Yrotation Xrotation 
					JOINT rForeArm
					{
						OFFSET -10.266159 0.000000 0.000000
						CHANNELS 3 Yrotation Zrotation Xrotation 
						JOINT rHand
						{
							OFFSET -8.349810 0.000000 0.000000
							CHANNELS 3 Zrotation Yrotation Xrotation 
							End Site
							{
								OFFSET -4.106464 0.000000 0.000000
							}
						}
					}
				}
			}
		}
	}
	JOINT lThigh
	{
		OFFSET 5.338403 -1.642589 1.368821
		CHANNELS 3 Xrotation Zrotation Yrotation 
		JOINT lShin
		{
			OFFSET -2.053232 -20.121670 0.000000
			CHANNELS 3 Xrotation Zrotation Yrotation 
			JOINT lFoot
			{
				OFFSET 0.000000 -19.300380 -1.231939
				CHANNELS 3 Xrotation Yrotation Zrotation 
				End Site
				{
					OFFSET 0.000000 -2.463878 4.653993
				}
			}
		}
	}
	JOINT rThigh
	{
		OFFSET -5.338403 -1.642589 1.368821
		CHANNELS 3 Xrotation Zrotation Yrotation 
		JOINT rShin
		{
			OFFSET 2.053232 -20.121670 0.000000
			CHANNELS 3 Xrotation Zrotation Yrotation 
			JOINT rFoot
			{
				OFFSET 0.000000 -19.300380 -1.231939
				CHANNELS 3 Xrotation Yrotation Zrotation 
				End Site
				{
					OFFSET 0.000000 -2.463878 4.653993
				}
			}
		}
	}
}
MOTION
Frames: 18
Frame Time: 0.033264
0.000000 43.528500 0.000000 0.000000 0.000000 0.000000 0.000000 0.000000 0.000000 0.000000 0.000000 0.000000 0.000000 0.000000 0.000000 0.000000 0.000000 0.000000 0.000000 0.000000 0.000000 0.000000 0.000000 0.000000 0.000000 0.000000 0.000000 0.000000 0.000000 0.000000 0.000000 0.000000 0.000000 0.000000 0.000000 0.000000 0.000000 0.000000 0.000000 0.000000 0.000000 0.000000 0.000000 0.000000 0.000000 0.000000 0.000000 0.000000 0.000000 0.000000 0.000000 0.000000 0.000000 0.000000 0.000000 0.000000 0.000000 0.000000 0.000000 0.000000 
0.000000 7.522690 0.000000 -48.026028 0.432040 -1.982361 22.517189 -2.032295 -0.763018 12.230260 0.296502 -3.702331 6.336893 1.212101 -0.162326 -33.424656 -0.678089 -2.179115 -11.240164 3.884036 8.749074 -51.030270 -57.209625 19.576170 -27.007294 57.865917 -41.151314 -61.325577 -0.168757 -40.993443 2.296414 -8.400965 7.312274 86.870682 -8.106818 6.747612 -10.870842 0.512748 -53.937031 -41.690521 6.279662 -15.839599 -81.963814 4.765877 -25.039749 92.701195 0.160814 -0.735796 25.967981 -11.253673 -27.558455 -81.485115 -3.959006 27.663862 88.367371 -0.381247 0.841343 31.234835 14.925586 24.355371 
0.000000 7.522690 0.000000 -48.026028 0.432040 -1.982361 22.517189 -2.032295 -0.763018 12.230260 0.296502 -3.702331 6.317516 1.340971 -0.184684 -33.424656 -0.678089 -2.179115 -11.116970 4.041024 8.773916 -51.030270 -57.209625 19.576170 -27.493748 57.615192 -40.757957 -60.968460 -0.331317 -41.024345 2.296414 -8.400966 7.312274 86.870682 -8.106818 6.747612 -10.870842 0.512748 -53.937031 -41.690521 6.279662 -15.839599 -81.963814 4.765877 -25.039749 92.701195 0.160814 -0.735796 25.967981 -11.253673 -27.558455 -81.485115 -3.959007 27.663862 88.367371 -0.381247 0.841343 31.234835 14.925586 24.355371 
0.000000 7.522690 0.000000 -48.026035 0.432040 -1.982361 22.517189 -2.032295 -0.763018 12.230261 0.296502 -3.702331 6.298085 1.469868 -0.207093 -33.424656 -0.678089 -2.179115 -10.993755 4.198146 8.798437 -51.030270 -57.209625 19.576170 -27.974474 57.362267 -40.370598 -60.610512 -0.494019 -41.056328 2.296414 -8.400965 7.312274 86.870682 -8.106819 6.747612 -10.870842 0.512748 -53.937031 -41.690521 6.279663 -15.839599 -81.963814 4.765877 -25.039749 92.701195 0.160814 -0.735796 25.967981 -11.253673 -27.558455 -81.485123 -3.959006 27.663864 88.367371 -0.381247 0.841343 31.234840 14.925588 24.355371 
0.000000 7.522690 0.000000 -48.026028 0.432040 -1.982361 22.517189 -2.032295 -0.763018 12.230260 0.296502 -3.702331 6.278598 1.598792 -0.229553 -33.424656 -0.678089 -2.179115 -10.870521 4.355400 8.822637 -51.030270 -57.209625 19.576170 -28.449574 57.107193 -39.989166 -60.251717 -0.656852 -41.089397 2.296414 -8.400966 7.312274 86.870682 -8.106818 6.747612 -10.870843 0.512748 -53.937038 -41.690521 6.279663 -15.839599 -81.963814 4.765877 -25.039753 92.701195 0.160814 -0.735796 25.967981 -11.253673 -27.558455 -81.485115 -3.959007 27.663862 88.367371 -0.381247 0.841343 31.234838 14.925586 24.355373 
0.000000 7.522690 0.000000 -48.026028 0.432040 -1.982361 22.517191 -2.032295 -0.763018 12.230260 0.296502 -3.702332 6.259052 1.727742 -0.252064 -33.424656 -0.678089 -2.179115 -10.747268 4.512784 8.846514 -51.030277 -57.209633 19.576172 -28.919069 56.849987 -39.613621 -59.892094 -0.819805 -41.123554 2.296414 -8.400965 7.312274 86.870689 -8.106819 6.747611 -10.870843 0.512748 -53.937038 -41.690521 6.279663 -15.839599 -81.963821 4.765875 -25.039753 92.701202 0.160814 -0.735796 25.967985 -11.253675 -27.558456 -81.485115 -3.959006 27.663862 88.367371 -0.381247 0.841343 31.234838 14.925586 24.355373 
0.000000 7.522690 0.000000 -48.026031 0.432040 -1.982361 22.517191 -2.032295 -0.763018 12.230260 0.296502 -3.702331 6.239449 1.856718 -0.274627 -33.424656 -0.678089 -2.179115 -10.623989 4.670296 8.870067 -51.030277 -57.209633 19.576172 -29.383055 56.590694 -39.243862 -59.531643 -0.982871 -41.158813 2.296414 -8.400967 7.312274 86.870682 -8.106819 6.747612 -10.870842 0.512748 -53.937031 -41.690521 6.279662 -15.839599 -81.963821 4.765876 -25.039751 92.701202 0.160814 -0.735796 25.967983 -11.253674 -27.558455 -81.485115 -3.959008 27.663862 88.367378 -0.381247 0.841343 31.234835 14.925586 24.355373 
0.000000 7.522690 0.000000 -48.026028 0.432040 -1.982361 22.517189 -2.032294 -0.763018 12.230260 0.296502 -3.702331 6.219789 1.985718 -0.297241 -33.424648 -0.678089 -2.179114 -10.500686 4.827934 8.893295 -51.030270 -57.209625 19.576170 -29.841599 56.329350 -38.879841 -59.170338 -1.146032 -41.195171 2.296413 -8.400965 7.312274 86.870682 -8.106818 6.747611 -10.870841 0.512748 -53.937023 -41.690517 6.279662 -15.839597 -81.963799 4.765879 -25.039747 92.701195 0.160814 -0.735796 25.967981 -11.253673 -27.558455 -81.485115 -3.959005 27.663860 88.367371 -0.381247 0.841343 31.234835 14.925586 24.355370 
0.000000 7.522690 0.000000 -48.026024 0.432040 -1.982361 22.517189 -2.032295 -0.763018 12.230260 0.296502 -3.702331 6.200072 2.114744 -0.319907 -33.424652 -0.678089 -2.179115 -10.377362 4.985698 8.916202 -51.030262 -57.209614 19.576168 -30.294758 56.065956 -38.521454 -58.808201 -1.309280 -41.232632 2.296414 -8.400965 7.312274 86.870682 -8.106818 6.747612 -10.870841 0.512748 -53.937023 -41.690517 6.279662 -15.839597 -81.963799 4.765876 -25.039747 92.701195 0.160814 -0.735796 25.967981 -11.253673 -27.558455 -81.485115 -3.959004 27.663860 88.367371 -0.381247 0.841343 31.234835 14.925586 24.355370 
0.000000 7.522690 0.000000 -48.026024 0.432040 -1.982361 22.517189 -2.032295 -0.763018 12.230259 0.296502 -3.702331 6.180299 2.243794 -0.342625 -33.424652 -0.678089 -2.179115 -10.254013 5.143587 8.938784 -51.030262 -57.209614 19.576168 -30.742628 55.800606 -38.168678 -58.445240 -1.472609 -41.271206 2.296414 -8.400965 7.312274 86.870674 -8.106818 6.747612 -10.870842 0.512748 -53.937031 -41.690521 6.279662 -15.839599 -81.963814 4.765877 -25.039749 92.701187 0.160814 -0.735796 25.967979 -11.253673 -27.558455 -81.485115 -3.959006 27.663862 88.367371 -0.381247 0.841343 31.234831 14.925584 24.355371 
0.000000 7.522690 0.000000 -48.026028 0.432040 -1.982361 22.517189 -2.032295 -0.763018 12.230260 0.296502 -3.702331 6.160465 2.372869 -0.365395 -33.424656 -0.678089 -2.179115 -10.130636 5.301599 8.961040 -51.030270 -57.209625 19.576170 -31.185268 55.533298 -37.821411 -58.081421 -1.636003 -41.310894 2.296414 -8.400965 7.312274 86.870682 -8.106818 6.747610 -10.870842 0.512748 -53.937031 -41.690521 6.279662 -15.839599 -81.963814 4.765877 -25.039749 92.701187 0.160814 -0.735796 25.967979 -11.253673 -27.558455 -81.485115 -3.959006 27.663862 88.367371 -0.381247 0.841343 31.234835 14.925586 24.355371 
0.000000 7.522690 0.000000 -48.026028 0.432040 -1.982361 22.517189 -2.032295 -0.763018 12.230260 0.296502 -3.702331 6.140574 2.501967 -0.388218 -33.424656 -0.678089 -2.179115 -10.007232 5.459729 8.982969 -51.030270 -57.209625 19.576170 -31.622742 55.264072 -37.479607 -57.716778 -1.799449 -41.351700 2.296414 -8.400965 7.312274 86.870682 -8.106818 6.747612 -10.870842 0.512748 -53.937031 -41.690521 6.279662 -15.839599 -81.963814 4.765877 -25.039749 92.701195 0.160814 -0.735796 25.967979 -11.253673 -27.558455 -81.485115 -3.959007 27.663860 88.367363 -0.381247 0.841343 31.234835 14.925586 24.355371 
0.000000 7.522690 0.000000 -48.026028 0.432040 -1.982361 22.517189 -2.032295 -0.763018 12.230260 0.296502 -3.702331 6.120625 2.631089 -0.411094 -33.424656 -0.678089 -2.179115 -9.883800 5.617979 9.004573 -51.030270 -57.209625 19.576170 -32.055126 54.992943 -37.143166 -57.351303 -1.962942 -41.393627 2.296414 -8.400965 7.312274 86.870682 -8.106818 6.747612 -10.870842 0.512748 -53.937031 -41.690521 6.279662 -15.839599 -81.963814 4.765877 -25.039749 92.701195 0.160814 -0.735796 25.967981 -11.253673 -27.558455 -81.485115 -3.959006 27.663862 88.367371 -0.381247 0.841343 31.234835 14.925586 24.355371 
0.000000 7.522690 0.000000 -48.026028 0.432040 -1.982361 22.517189 -2.032295 -0.763018 12.230261 0.296502 -3.702331 6.100617 2.760234 -0.434023 -33.424656 -0.678089 -2.179115 -9.760337 5.776345 9.025850 -51.030270 -57.209625 19.576170 -32.482491 54.719971 -36.812035 -56.984993 -2.126463 -41.436691 2.296414 -8.400965 7.312274 86.870682 -8.106818 6.747612 -10.870842 0.512748 -53.937031 -41.690521 6.279662 -15.839599 -81.963814 4.765877 -25.039749 92.701195 0.160814 -0.735796 25.967981 -11.253673 -27.558455 -81.485115 -3.959006 27.663862 88.367371 -0.381247 0.841343 31.234835 14.925586 24.355371 
0.000000 7.522690 0.000000 -48.026028 0.432040 -1.982361 22.517189 -2.032295 -0.763018 12.230260 0.296502 -3.702331 6.080551 2.889402 -0.457005 -33.424660 -0.678089 -2.179115 -9.636846 5.934828 9.046799 -51.030270 -57.209625 19.576170 -32.904911 54.445171 -36.486141 -56.617847 -2.290005 -41.480885 2.296414 -8.400966 7.312274 86.870682 -8.106818 6.747612 -10.870842 0.512747 -53.937031 -41.690529 6.279662 -15.839599 -81.963814 4.765877 -25.039749 92.701195 0.160814 -0.735796 25.967981 -11.253673 -27.558455 -81.485115 -3.959006 27.663862 88.367371 -0.381247 0.841343 31.234835 14.925588 24.355373 
0.000000 7.522690 0.000000 -48.026028 0.432040 -1.982361 22.517189 -2.032295 -0.763018 12.230260 0.296502 -3.702331 6.060424 3.018591 -0.480040 -33.424660 -0.678089 -2.179115 -9.513319 6.093425 9.067416 -51.030277 -57.209625 19.576172 -33.322468 54.168591 -36.165417 -56.249847 -2.453557 -41.526196 2.296414 -8.400965 7.312274 86.870682 -8.106818 6.747612 -10.870843 0.512748 -53.937038 -41.690521 6.279663 -15.839599 -81.963814 4.765877 -25.039749 92.701195 0.160814 -0.735796 25.967981 -11.253673 -27.558455 -81.485115 -3.959007 27.663862 88.367371 -0.381247 0.841343 31.234835 14.925586 24.355371 
0.000000 7.522690 0.000000 -48.026035 0.432040 -1.982362 22.517191 -2.032295 -0.763018 12.230260 0.296502 -3.702331 6.040240 3.147804 -0.503129 -33.424660 -0.678089 -2.179115 -9.389761 6.252134 9.087708 -51.030277 -57.209633 19.576174 -33.735207 53.890247 -35.849800 -55.881031 -2.617106 -41.572662 2.296414 -8.400966 7.312274 86.870682 -8.106819 6.747612 -10.870842 0.512748 -53.937031 -41.690521 6.279662 -15.839599 -81.963821 4.765876 -25.039751 92.701202 0.160814 -0.735796 25.967983 -11.253674 -27.558456 -81.485115 -3.959004 27.663862 88.367371 -0.381247 0.841343 31.234835 14.925586 24.355371 
0.000000 7.522690 0.000000 -48.026028 0.432040 -1.982361 22.517189 -2.032295 -0.763018 12.230261 0.296502 -3.702331 6.019997 3.277038 -0.526272 -33.424660 -0.678089 -2.179115 -9.266171 6.410954 9.107669 -51.030277 -57.209633 19.576172 -34.143227 53.610191 -35.539215 -55.511372 -2.780640 -41.620270 2.296414 -8.400965 7.312274 86.870689 -8.106819 6.747611 -10.870842 0.512748 -53.937031 -41.690521 6.279663 -15.839599 -81.963821 4.765879 -25.039753 92.701202 0.160814 -0.735796 25.967983 -11.253674 -27.558455 -81.485115 -3.959006 27.663862 88.367371 -0.381247 0.841343 31.234840 14.925588 24.355373 
